<svg width="84" height="21" viewBox="0 0 84 21" fill="none" xmlns="http://www.w3.org/2000/svg">
<path d="M63.1837 0.446398H61.3532V4.1075H63.1837V0.446398ZM63.1837 4.1075C64.8976 4.1075 66.1821 5.43621 66.1821 6.94705H69.8431C69.8431 3.29976 66.8031 0.446398 63.1837 0.446398V4.1075ZM66.1821 6.94705C66.1821 8.46413 64.8911 9.79905 63.1837 9.79905V13.4602C66.8096 13.4602 69.8431 10.5881 69.8431 6.94705H66.1821Z" fill="black"/>
<path d="M38.145 20.1072H36.3937V16.6046H38.145C38.1893 16.6046 38.2326 16.6046 38.2746 16.6046C39.5484 16.5544 40.0364 15.5538 40.1566 15.2479C40.2769 14.942 40.598 13.8679 39.7375 12.9351L36.7323 10.6759C35.9395 10.087 35.3174 9.29813 34.9296 8.38989C34.5725 7.53237 34.4284 6.6011 34.5098 5.67576C34.5911 4.75042 34.8954 3.85855 35.3966 3.07648C35.8774 2.31132 36.539 1.6761 37.323 1.22677C38.107 0.777432 38.9895 0.527775 39.8928 0.499756C39.9803 0.499756 40.0702 0.499756 40.1601 0.499756H41.9114V4.00233H40.1601H40.0305C39.6931 4.01005 39.3629 4.10173 39.0698 4.26909C38.7766 4.43644 38.5298 4.67419 38.3516 4.96087C38.156 5.26602 38.0361 5.61353 38.002 5.97443C37.9678 6.33532 38.0205 6.69914 38.1555 7.03556C38.3045 7.36946 38.5389 7.65819 38.835 7.87267L41.9511 10.2147C42.0163 10.2636 42.0779 10.3171 42.1356 10.3747C42.9322 11.1578 43.4793 12.1592 43.7078 13.2526C43.9364 14.3461 43.8362 15.4827 43.4199 16.5194C43.0322 17.5437 42.3501 18.4304 41.4594 19.0679C40.5687 19.7053 39.5093 20.0649 38.4147 20.1013C38.3248 20.106 38.2349 20.1072 38.145 20.1072Z" fill="black"/>
<path d="M11.2952 13.9266C11.2952 16.5068 13.5197 18.6644 16.1863 18.6644C18.8529 18.6644 21.0152 16.5734 21.0152 13.9943V2.28284" stroke="black" stroke-width="3.6611" stroke-linecap="square" stroke-linejoin="round"/>
<path d="M36.4073 20.0968L36.4236 20.1061C33.5468 20.1061 31.3729 18.1061 30.9748 15.4874L30.8907 15.0776C30.5708 13.6952 29.4009 12.6585 28.0046 12.6585H26.2533V9.15588H28.0046C31.3087 9.15588 33.7255 11.6555 34.4155 15.0122C34.4248 15.0554 34.4353 15.0986 34.447 15.1406L34.5089 15.3519C34.5386 15.4627 34.5809 15.5696 34.635 15.6707C35.0658 16.4506 35.4966 16.572 36.3944 16.6047" fill="black"/>
<path d="M66.0514 15.0194C64.7672 13.6861 64.8092 11.8974 64.8092 11.8799V11.8974L61.3066 11.7048C61.2891 12.034 61.1899 14.9902 63.4735 17.3965C64.9633 18.9703 67.0672 19.8856 69.7373 20.132V16.6107C68.1238 16.4134 66.885 15.8822 66.0514 15.0194Z" fill="black"/>
<path d="M71.332 0.499756V4.03619H78.8625L71.3086 16.6163L71.3086 20.1142H83.4509V16.6116H75.7581L83.4509 3.87274V0.499756L71.332 0.499756Z" fill="black"/>
<path d="M64.2999 9.79956H61.2999V11.7996H64.2999V9.79956Z" fill="black"/>
<path d="M65.0001 10.4998H62.0001V12.4998H65.0001V10.4998Z" fill="black"/>
<path d="M51.9752 20.1143V5.10221C51.9974 3.51788 53.3436 2.25111 54.9804 2.2733C56.6173 2.29548 57.9261 3.59611 57.8992 5.18044V20.1143" stroke="black" stroke-width="3.6611" stroke-miterlimit="10"/>
<path d="M1.84058 20.1067V2.31131H13.0488" stroke="black" stroke-width="3.6611" stroke-miterlimit="10"/>
<path d="M3.47546 7.62222H7.73693" stroke="black" stroke-width="3.6611" stroke-miterlimit="10"/>
<path d="M26.5807 0.528229V20.1136" stroke="black" stroke-width="3.6611" stroke-miterlimit="10"/>
<path d="M46.7788 0.499756C46.7332 8.14963 46.7788 20.1142 46.7788 20.1142" stroke="black" stroke-width="3.6611" stroke-miterlimit="10"/>
<path d="M11.2887 12.5248L11.2887 5.77631" stroke="black" stroke-width="3.6611" stroke-miterlimit="10"/>
<path d="M25.9607 9.91423L27.8276 12.7898L34.5992 0.557678H31.1609L25.9607 9.91423Z" fill="black"/>
<path d="M56.5663 12.1964L50.4578 12.0936L50.4975 13.3184C50.7847 13.1596 52.9014 12.0574 54.7006 12.8805C54.8285 12.9416 54.9525 13.0106 55.0718 13.0872C56.2214 13.7887 57.5441 14.1551 58.8908 14.145V12.6716C58.0918 12.6722 57.3009 12.5105 56.5663 12.1964V12.1964Z" fill="black"/>
<path d="M55.7536 11.7534C56.0122 11.925 56.2857 12.0731 56.5708 12.1959L58.8965 12.2344V11.1918C58.0913 11.2 57.3012 10.9728 56.6234 10.538L56.5428 10.4866C54.2918 9.18133 51.9054 9.60981 50.3993 10.1364L50.4495 11.702C51.582 11.2257 53.7746 10.6081 55.7536 11.7534Z" fill="black"/>
<path d="M56.5664 12.1957C57.3015 12.51 58.0927 12.6717 58.8921 12.6709V12.2343L56.5664 12.1957Z" fill="black"/>
<path d="M55.7532 11.7538C53.7684 10.6049 51.5816 11.226 50.4445 11.7012L50.4573 12.0935L56.5658 12.1963C56.2823 12.0733 56.0103 11.9252 55.7532 11.7538V11.7538Z" fill="black"/>
</svg>
